<svg fill="currentColor" xmlns="http://www.w3.org/2000/svg" id="Layer_1" data-name="Layer 1" viewBox="0 0 128 128"><defs><style>.cls-1{fill:#2d3e50;}</style></defs><title>v</title><path class="cls-1" d="M61.84077,27.18548a11.98557,11.98557,0,1,0-11.95489-12.051A12.04953,12.04953,0,0,0,61.84077,27.18548Z" id="id_101" style="fill: rgb(10, 104, 53);"></path><path class="cls-1" d="M90.06792,52.07981a4.74061,4.74061,0,0,0-3.9613-2.97028L72.45371,47.83185l-3.53577-.32858C64.86863,42.0472,58.0024,28.32257,47.50481,29.68044a8.76369,8.76369,0,0,0-5.70211,3.25449c-7.57311,9.52308-10.986,20.62817-10.99091,32.82095-.00143,3.62906.20422,7.25357.46965,10.87181a9.10282,9.10282,0,0,0,3.93,7.00135v33.19552a7.96106,7.96106,0,0,0,7.96105,7.96109h0a7.96106,7.96106,0,0,0,7.96105-7.96109V84.09976C58.73515,79.65661,57.78423,68.79509,58.806,60.812a18.89235,18.89235,0,0,1,1.73139-5.81476l1.34545,1.3142.485.47455a4.90275,4.90275,0,0,0,3.322,1.38721l.23987.00522,19.645.39113a4.75623,4.75623,0,0,0,4.11173-2.25735,5.09529,5.09529,0,0,1,3.32976,4.77071v61.61668a2.086,2.086,0,1,0,4.172,0V61.08294A9.27281,9.27281,0,0,0,90.06792,52.07981Z" id="id_102" style="fill: rgb(10, 104, 53);"></path></svg>